<svg xmlns="http://www.w3.org/2000/svg" viewBox="-60 -60 1144 1004" width="100%" height="100%">
  <defs>
    <!-- Beautiful diagonal gradient matching the app's brand theme -->
    <linearGradient id="bg-gradient" x1="0%" y1="0%" x2="100%" y2="100%">
      <stop offset="0%" stop-color="#6366f1" />
      <stop offset="50%" stop-color="#8b5cf6" />
      <stop offset="100%" stop-color="#d946ef" />
    </linearGradient>

    <!-- Mask to create transparent cutout gaps on the vertical columns -->
    <mask id="bar-mask">
      <!-- Everything white is visible -->
      <rect x="-100" y="-100" width="1344" height="1204" fill="#ffffff" />
      <!-- Drawing the swoosh in black cuts a transparent gap through the bars -->
      <path d="M 868.0 127.0 L 864.9 128.5 L 858.7 131.5 L 849.4 136.1 L 837.1 142.2 L 821.6 149.7 L 803.0 158.8 L 781.4 169.4 L 756.6 181.6 L 735.9 192.7 L 719.1 202.8 L 706.3 211.9 L 697.5 220.1 L 692.6 227.2 L 691.8 233.3 L 694.9 238.4 L 702.1 242.6 L 708.1 246.6 L 712.9 250.6 L 716.7 254.6 L 719.3 258.4 L 720.8 262.2 L 721.2 266.0 L 720.4 269.7 L 718.6 273.3 L 716.1 277.5 L 713.1 282.2 L 709.6 287.4 L 705.4 293.1 L 700.8 299.4 L 695.5 306.2 L 689.7 313.6 L 683.3 321.4 L 676.9 329.1 L 670.5 336.5 L 664.1 343.7 L 657.7 350.6 L 651.2 357.3 L 644.7 363.8 L 638.2 370.0 L 631.8 376.0 L 624.4 382.2 L 616.2 388.7 L 607.1 395.3 L 597.2 402.2 L 586.4 409.3 L 574.7 416.6 L 562.2 424.1 L 548.8 431.9 L 535.9 439.0 L 523.5 445.5 L 511.6 451.3 L 500.2 456.5 L 489.2 461.0 L 478.7 464.9 L 468.8 468.2 L 459.2 470.8 L 449.4 473.1 L 439.1 475.1 L 428.5 476.8 L 417.5 478.2 L 406.1 479.2 L 394.4 480.0 L 382.2 480.4 L 369.8 480.6 L 357.4 480.3 L 345.2 479.6 L 333.1 478.6 L 321.2 477.2 L 309.4 475.3 L 297.7 473.1 L 286.2 470.5 L 274.8 467.5 L 263.4 464.1 L 252.1 460.3 L 240.7 456.2 L 229.3 451.6 L 217.9 446.6 L 206.6 441.3 L 195.2 435.6 L 183.8 429.4 L 174.6 424.8 L 167.6 421.6 L 162.8 419.9 L 160.2 419.6 L 159.8 420.8 L 161.5 423.5 L 165.4 427.7 L 171.6 433.3 L 177.9 438.9 L 184.6 444.5 L 191.4 450.0 L 198.6 455.5 L 205.9 461.0 L 213.6 466.4 L 221.4 471.8 L 229.6 477.2 L 238.2 482.4 L 247.3 487.5 L 256.8 492.5 L 266.9 497.3 L 277.5 502.0 L 288.5 506.5 L 300.0 510.9 L 312.0 515.1 L 324.2 519.0 L 336.6 522.4 L 349.2 525.3 L 362.0 527.9 L 375.0 530.0 L 388.3 531.8 L 401.7 533.1 L 415.3 533.9 L 429.1 534.2 L 443.2 534.0 L 457.4 533.1 L 471.8 531.7 L 486.5 529.6 L 501.3 527.0 L 516.4 523.9 L 531.6 520.1 L 546.1 516.2 L 559.8 512.2 L 572.8 508.1 L 585.0 503.9 L 596.4 499.5 L 607.0 495.0 L 616.9 490.4 L 626.1 485.6 L 634.9 480.8 L 643.5 476.0 L 651.8 471.1 L 659.8 466.2 L 667.5 461.2 L 674.9 456.1 L 682.1 451.1 L 688.9 445.9 L 696.5 439.7 L 704.6 432.4 L 713.4 423.9 L 722.8 414.3 L 732.9 403.7 L 743.6 391.9 L 755.0 379.0 L 767.0 365.0 L 778.4 353.3 L 789.3 343.9 L 799.5 336.9 L 809.2 332.1 L 818.3 329.7 L 826.9 329.6 L 834.8 331.8 L 842.2 336.2 L 848.6 340.2 L 854.2 343.6 L 858.8 346.4 L 862.5 348.6 L 865.2 350.3 L 867.1 351.4 L 868.0 352.0 Z" fill="#000000" stroke="#000000" stroke-width="26" stroke-linejoin="round" stroke-linecap="round" />
      <!-- Drawing the smile in black cuts a transparent gap through the bars -->
      <path d="M 111.0 565.0 L 111.0 565.1 L 111.1 565.4 L 111.3 565.8 L 111.5 566.4 L 111.7 567.1 L 112.0 568.0 L 112.3 568.9 L 112.7 570.1 L 113.6 571.6 L 115.1 573.6 L 117.2 576.0 L 119.8 578.8 L 123.0 582.0 L 126.8 585.7 L 131.1 589.8 L 135.9 594.2 L 141.7 599.2 L 148.2 604.6 L 155.6 610.4 L 163.9 616.6 L 173.0 623.3 L 182.9 630.4 L 193.7 638.0 L 205.3 646.0 L 217.0 653.7 L 228.7 661.0 L 240.5 667.9 L 252.3 674.6 L 264.1 680.8 L 276.0 686.8 L 288.0 692.4 L 300.0 697.6 L 312.2 702.6 L 324.7 707.2 L 337.3 711.6 L 350.2 715.7 L 363.3 719.4 L 376.6 722.9 L 390.1 726.1 L 403.9 728.9 L 416.9 731.5 L 429.2 733.7 L 440.8 735.6 L 451.7 737.2 L 461.8 738.4 L 471.3 739.3 L 480.0 739.9 L 488.0 740.1 L 495.8 740.3 L 503.4 740.3 L 510.9 740.2 L 518.1 740.0 L 525.2 739.7 L 532.1 739.3 L 538.8 738.8 L 545.2 738.2 L 552.2 737.3 L 559.8 736.2 L 567.8 734.9 L 576.2 733.3 L 585.2 731.5 L 594.8 729.5 L 604.8 727.2 L 615.2 724.8 L 625.9 721.9 L 636.8 718.7 L 647.8 715.2 L 659.0 711.3 L 670.3 707.1 L 681.9 702.5 L 693.6 697.6 L 705.4 692.4 L 716.7 687.2 L 727.4 682.1 L 737.4 677.1 L 746.8 672.2 L 755.7 667.3 L 763.9 662.5 L 771.5 657.8 L 778.5 653.2 L 784.9 648.9 L 790.7 644.8 L 795.8 641.1 L 800.4 637.7 L 804.4 634.5 L 807.7 631.7 L 810.4 629.1 L 812.6 626.9 L 814.4 624.7 L 815.8 622.6 L 817.0 620.6 L 817.8 618.7 L 818.3 616.8 L 818.4 615.0 L 818.2 613.3 L 817.8 611.7 L 817.1 610.2 L 816.3 608.9 L 815.4 607.8 L 814.3 606.8 L 813.1 605.9 L 811.8 605.2 L 810.3 604.7 L 808.7 604.3 L 806.0 604.5 L 802.2 605.3 L 797.2 606.8 L 791.2 608.8 L 784.2 611.3 L 776.0 614.5 L 766.7 618.3 L 756.3 622.7 L 745.6 627.0 L 734.6 631.1 L 723.3 635.2 L 711.7 639.1 L 699.8 642.9 L 687.5 646.6 L 674.9 650.2 L 662.1 653.8 L 649.3 657.0 L 636.8 659.9 L 624.4 662.6 L 612.1 664.9 L 600.0 667.0 L 588.1 668.8 L 576.3 670.4 L 564.7 671.6 L 553.3 672.7 L 542.1 673.6 L 531.2 674.2 L 520.5 674.8 L 510.1 675.1 L 499.9 675.2 L 489.9 675.1 L 480.1 674.9 L 470.6 674.5 L 461.4 674.0 L 452.4 673.5 L 443.6 672.8 L 435.1 672.0 L 426.9 671.1 L 418.9 670.1 L 411.1 668.9 L 403.2 667.7 L 395.2 666.3 L 387.0 664.7 L 378.7 663.0 L 370.3 661.2 L 361.7 659.2 L 352.9 657.1 L 344.1 654.9 L 334.6 652.2 L 324.6 649.2 L 314.0 645.9 L 302.8 642.1 L 291.0 638.0 L 278.7 633.5 L 265.8 628.6 L 252.2 623.4 L 239.2 618.1 L 226.6 612.7 L 214.4 607.3 L 202.6 601.9 L 191.3 596.4 L 180.4 590.9 L 170.0 585.3 L 160.0 579.7 L 151.1 574.8 L 143.3 570.5 L 136.6 567.0 L 130.9 564.2 L 126.4 562.1 L 123.0 560.7 L 120.6 560.0 L 119.4 560.0 L 118.3 560.0 L 117.3 560.0 L 116.6 560.0 L 115.9 560.0 L 115.5 560.0 L 115.2 560.0 L 115.0 560.0 Z" fill="#000000" stroke="#000000" stroke-width="26" stroke-linejoin="round" stroke-linecap="round" />
      <path d="M 785.0 542.0 L 784.4 542.3 L 783.3 542.8 L 781.5 543.6 L 779.2 544.7 L 776.3 546.0 L 772.9 547.6 L 768.8 549.4 L 764.2 551.6 L 760.0 553.6 L 756.2 555.5 L 752.8 557.3 L 749.8 559.0 L 747.2 560.5 L 745.0 562.0 L 743.2 563.4 L 741.8 564.6 L 740.6 565.8 L 739.5 567.0 L 738.6 568.1 L 737.9 569.2 L 737.3 570.2 L 736.8 571.1 L 736.6 572.1 L 736.4 572.9 L 736.4 573.8 L 736.4 574.5 L 736.5 575.3 L 736.7 576.0 L 737.0 576.6 L 737.3 577.2 L 737.8 577.8 L 738.2 578.2 L 738.8 578.7 L 739.3 579.1 L 739.9 579.4 L 740.6 579.6 L 741.2 579.8 L 741.9 579.9 L 742.6 580.0 L 743.4 580.0 L 744.2 579.9 L 745.2 579.8 L 746.3 579.6 L 747.5 579.4 L 748.8 579.1 L 750.2 578.7 L 751.7 578.2 L 753.3 577.8 L 755.2 577.2 L 757.2 576.8 L 759.5 576.2 L 762.0 575.8 L 764.7 575.2 L 767.7 574.8 L 770.8 574.2 L 774.2 573.8 L 777.6 573.3 L 780.9 572.9 L 784.3 572.5 L 787.7 572.2 L 791.1 572.0 L 794.4 571.7 L 797.8 571.6 L 801.2 571.4 L 804.6 571.4 L 807.9 571.3 L 811.3 571.3 L 814.7 571.4 L 818.1 571.5 L 821.4 571.7 L 824.8 571.9 L 828.2 572.1 L 831.3 572.4 L 834.0 572.7 L 836.5 573.0 L 838.7 573.3 L 840.6 573.6 L 842.2 574.0 L 843.5 574.3 L 844.5 574.7 L 845.5 575.1 L 846.4 575.5 L 847.2 576.0 L 848.0 576.5 L 848.8 577.0 L 849.5 577.6 L 850.2 578.2 L 850.8 578.8 L 851.4 579.5 L 852.0 580.2 L 852.5 581.0 L 853.0 581.8 L 853.5 582.6 L 853.9 583.5 L 854.3 584.5 L 854.7 585.5 L 855.0 586.8 L 855.2 588.4 L 855.3 590.4 L 855.4 592.6 L 855.4 595.2 L 855.3 598.1 L 855.1 601.2 L 854.9 604.8 L 854.5 608.5 L 853.9 612.4 L 853.2 616.6 L 852.3 620.9 L 851.3 625.5 L 850.1 630.3 L 848.8 635.4 L 847.2 640.6 L 845.7 645.8 L 844.1 650.9 L 842.5 656.0 L 840.8 661.0 L 839.0 665.9 L 837.3 670.8 L 835.4 675.6 L 833.6 680.4 L 831.9 684.7 L 830.6 688.5 L 829.4 691.9 L 828.6 694.8 L 827.9 697.3 L 827.6 699.4 L 827.4 700.9 L 827.6 702.1 L 827.8 703.1 L 828.0 704.0 L 828.4 704.8 L 828.8 705.5 L 829.4 706.0 L 830.0 706.5 L 830.6 706.9 L 831.4 707.1 L 832.1 707.3 L 832.9 707.3 L 833.7 707.3 L 834.5 707.2 L 835.4 707.0 L 836.2 706.7 L 837.1 706.2 L 837.9 705.8 L 838.8 705.2 L 839.8 704.5 L 840.8 703.8 L 841.8 703.0 L 842.8 702.1 L 843.8 701.1 L 844.9 700.1 L 846.1 698.9 L 847.3 697.6 L 848.7 696.0 L 850.2 694.2 L 851.8 692.1 L 853.6 689.8 L 855.4 687.3 L 857.4 684.5 L 859.6 681.5 L 861.7 678.2 L 864.0 674.6 L 866.2 670.6 L 868.5 666.4 L 870.9 661.8 L 873.3 656.9 L 875.8 651.8 L 878.2 646.2 L 880.5 641.0 L 882.6 636.1 L 884.5 631.5 L 886.2 627.2 L 887.7 623.2 L 889.0 619.5 L 890.1 616.1 L 890.9 612.9 L 891.8 609.9 L 892.5 606.9 L 893.2 604.0 L 893.8 601.2 L 894.4 598.5 L 894.9 595.8 L 895.3 593.2 L 895.7 590.8 L 896.0 588.1 L 896.2 585.3 L 896.3 582.3 L 896.4 579.2 L 896.4 575.9 L 896.3 572.5 L 896.1 568.9 L 895.9 565.1 L 895.5 561.7 L 895.0 558.6 L 894.3 555.8 L 893.5 553.4 L 892.5 551.3 L 891.4 549.5 L 890.2 548.1 L 888.8 546.9 L 887.2 545.9 L 885.5 544.8 L 883.5 543.8 L 881.3 542.9 L 878.9 542.0 L 876.3 541.2 L 873.5 540.4 L 870.5 539.6 L 867.3 539.0 L 863.9 538.4 L 860.3 537.8 L 856.5 537.4 L 852.5 537.0 L 848.2 536.8 L 843.8 536.6 L 839.2 536.4 L 834.8 536.4 L 830.7 536.3 L 826.8 536.3 L 823.2 536.4 L 819.8 536.5 L 816.7 536.7 L 813.8 536.9 L 811.2 537.1 L 808.9 537.3 L 806.9 537.5 L 805.3 537.7 L 804.0 537.8 L 803.0 537.9 L 802.3 538.0 L 802.0 538.0 Z" fill="#000000" stroke="#000000" stroke-width="26" stroke-linejoin="round" stroke-linecap="round" />
    </mask>

    <!-- Mask to create transparent cutout gaps on the swoosh arrow -->
    <mask id="swoosh-mask">
      <rect x="-100" y="-100" width="1344" height="1204" fill="#ffffff" />
      <!-- Drawing the smile in black cuts a transparent gap through the swoosh -->
      <path d="M 111.0 565.0 L 111.0 565.1 L 111.1 565.4 L 111.3 565.8 L 111.5 566.4 L 111.7 567.1 L 112.0 568.0 L 112.3 568.9 L 112.7 570.1 L 113.6 571.6 L 115.1 573.6 L 117.2 576.0 L 119.8 578.8 L 123.0 582.0 L 126.8 585.7 L 131.1 589.8 L 135.9 594.2 L 141.7 599.2 L 148.2 604.6 L 155.6 610.4 L 163.9 616.6 L 173.0 623.3 L 182.9 630.4 L 193.7 638.0 L 205.3 646.0 L 217.0 653.7 L 228.7 661.0 L 240.5 667.9 L 252.3 674.6 L 264.1 680.8 L 276.0 686.8 L 288.0 692.4 L 300.0 697.6 L 312.2 702.6 L 324.7 707.2 L 337.3 711.6 L 350.2 715.7 L 363.3 719.4 L 376.6 722.9 L 390.1 726.1 L 403.9 728.9 L 416.9 731.5 L 429.2 733.7 L 440.8 735.6 L 451.7 737.2 L 461.8 738.4 L 471.3 739.3 L 480.0 739.9 L 488.0 740.1 L 495.8 740.3 L 503.4 740.3 L 510.9 740.2 L 518.1 740.0 L 525.2 739.7 L 532.1 739.3 L 538.8 738.8 L 545.2 738.2 L 552.2 737.3 L 559.8 736.2 L 567.8 734.9 L 576.2 733.3 L 585.2 731.5 L 594.8 729.5 L 604.8 727.2 L 615.2 724.8 L 625.9 721.9 L 636.8 718.7 L 647.8 715.2 L 659.0 711.3 L 670.3 707.1 L 681.9 702.5 L 693.6 697.6 L 705.4 692.4 L 716.7 687.2 L 727.4 682.1 L 737.4 677.1 L 746.8 672.2 L 755.7 667.3 L 763.9 662.5 L 771.5 657.8 L 778.5 653.2 L 784.9 648.9 L 790.7 644.8 L 795.8 641.1 L 800.4 637.7 L 804.4 634.5 L 807.7 631.7 L 810.4 629.1 L 812.6 626.9 L 814.4 624.7 L 815.8 622.6 L 817.0 620.6 L 817.8 618.7 L 818.3 616.8 L 818.4 615.0 L 818.2 613.3 L 817.8 611.7 L 817.1 610.2 L 816.3 608.9 L 815.4 607.8 L 814.3 606.8 L 813.1 605.9 L 811.8 605.2 L 810.3 604.7 L 808.7 604.3 L 806.0 604.5 L 802.2 605.3 L 797.2 606.8 L 791.2 608.8 L 784.2 611.3 L 776.0 614.5 L 766.7 618.3 L 756.3 622.7 L 745.6 627.0 L 734.6 631.1 L 723.3 635.2 L 711.7 639.1 L 699.8 642.9 L 687.5 646.6 L 674.9 650.2 L 662.1 653.8 L 649.3 657.0 L 636.8 659.9 L 624.4 662.6 L 612.1 664.9 L 600.0 667.0 L 588.1 668.8 L 576.3 670.4 L 564.7 671.6 L 553.3 672.7 L 542.1 673.6 L 531.2 674.2 L 520.5 674.8 L 510.1 675.1 L 499.9 675.2 L 489.9 675.1 L 480.1 674.9 L 470.6 674.5 L 461.4 674.0 L 452.4 673.5 L 443.6 672.8 L 435.1 672.0 L 426.9 671.1 L 418.9 670.1 L 411.1 668.9 L 403.2 667.7 L 395.2 666.3 L 387.0 664.7 L 378.7 663.0 L 370.3 661.2 L 361.7 659.2 L 352.9 657.1 L 344.1 654.9 L 334.6 652.2 L 324.6 649.2 L 314.0 645.9 L 302.8 642.1 L 291.0 638.0 L 278.7 633.5 L 265.8 628.6 L 252.2 623.4 L 239.2 618.1 L 226.6 612.7 L 214.4 607.3 L 202.6 601.9 L 191.3 596.4 L 180.4 590.9 L 170.0 585.3 L 160.0 579.7 L 151.1 574.8 L 143.3 570.5 L 136.6 567.0 L 130.9 564.2 L 126.4 562.1 L 123.0 560.7 L 120.6 560.0 L 119.4 560.0 L 118.3 560.0 L 117.3 560.0 L 116.6 560.0 L 115.9 560.0 L 115.5 560.0 L 115.2 560.0 L 115.0 560.0 Z" fill="#000000" stroke="#000000" stroke-width="26" stroke-linejoin="round" stroke-linecap="round" />
      <path d="M 785.0 542.0 L 784.4 542.3 L 783.3 542.8 L 781.5 543.6 L 779.2 544.7 L 776.3 546.0 L 772.9 547.6 L 768.8 549.4 L 764.2 551.6 L 760.0 553.6 L 756.2 555.5 L 752.8 557.3 L 749.8 559.0 L 747.2 560.5 L 745.0 562.0 L 743.2 563.4 L 741.8 564.6 L 740.6 565.8 L 739.5 567.0 L 738.6 568.1 L 737.9 569.2 L 737.3 570.2 L 736.8 571.1 L 736.6 572.1 L 736.4 572.9 L 736.4 573.8 L 736.4 574.5 L 736.5 575.3 L 736.7 576.0 L 737.0 576.6 L 737.3 577.2 L 737.8 577.8 L 738.2 578.2 L 738.8 578.7 L 739.3 579.1 L 739.9 579.4 L 740.6 579.6 L 741.2 579.8 L 741.9 579.9 L 742.6 580.0 L 743.4 580.0 L 744.2 579.9 L 745.2 579.8 L 746.3 579.6 L 747.5 579.4 L 748.8 579.1 L 750.2 578.7 L 751.7 578.2 L 753.3 577.8 L 755.2 577.2 L 757.2 576.8 L 759.5 576.2 L 762.0 575.8 L 764.7 575.2 L 767.7 574.8 L 770.8 574.2 L 774.2 573.8 L 777.6 573.3 L 780.9 572.9 L 784.3 572.5 L 787.7 572.2 L 791.1 572.0 L 794.4 571.7 L 797.8 571.6 L 801.2 571.4 L 804.6 571.4 L 807.9 571.3 L 811.3 571.3 L 814.7 571.4 L 818.1 571.5 L 821.4 571.7 L 824.8 571.9 L 828.2 572.1 L 831.3 572.4 L 834.0 572.7 L 836.5 573.0 L 838.7 573.3 L 840.6 573.6 L 842.2 574.0 L 843.5 574.3 L 844.5 574.7 L 845.5 575.1 L 846.4 575.5 L 847.2 576.0 L 848.0 576.5 L 848.8 577.0 L 849.5 577.6 L 850.2 578.2 L 850.8 578.8 L 851.4 579.5 L 852.0 580.2 L 852.5 581.0 L 853.0 581.8 L 853.5 582.6 L 853.9 583.5 L 854.3 584.5 L 854.7 585.5 L 855.0 586.8 L 855.2 588.4 L 855.3 590.4 L 855.4 592.6 L 855.4 595.2 L 855.3 598.1 L 855.1 601.2 L 854.9 604.8 L 854.5 608.5 L 853.9 612.4 L 853.2 616.6 L 852.3 620.9 L 851.3 625.5 L 850.1 630.3 L 848.8 635.4 L 847.2 640.6 L 845.7 645.8 L 844.1 650.9 L 842.5 656.0 L 840.8 661.0 L 839.0 665.9 L 837.3 670.8 L 835.4 675.6 L 833.6 680.4 L 831.9 684.7 L 830.6 688.5 L 829.4 691.9 L 828.6 694.8 L 827.9 697.3 L 827.6 699.4 L 827.4 700.9 L 827.6 702.1 L 827.8 703.1 L 828.0 704.0 L 828.4 704.8 L 828.8 705.5 L 829.4 706.0 L 830.0 706.5 L 830.6 706.9 L 831.4 707.1 L 832.1 707.3 L 832.9 707.3 L 833.7 707.3 L 834.5 707.2 L 835.4 707.0 L 836.2 706.7 L 837.1 706.2 L 837.9 705.8 L 838.8 705.2 L 839.8 704.5 L 840.8 703.8 L 841.8 703.0 L 842.8 702.1 L 843.8 701.1 L 844.9 700.1 L 846.1 698.9 L 847.3 697.6 L 848.7 696.0 L 850.2 694.2 L 851.8 692.1 L 853.6 689.8 L 855.4 687.3 L 857.4 684.5 L 859.6 681.5 L 861.7 678.2 L 864.0 674.6 L 866.2 670.6 L 868.5 666.4 L 870.9 661.8 L 873.3 656.9 L 875.8 651.8 L 878.2 646.2 L 880.5 641.0 L 882.6 636.1 L 884.5 631.5 L 886.2 627.2 L 887.7 623.2 L 889.0 619.5 L 890.1 616.1 L 890.9 612.9 L 891.8 609.9 L 892.5 606.9 L 893.2 604.0 L 893.8 601.2 L 894.4 598.5 L 894.9 595.8 L 895.3 593.2 L 895.7 590.8 L 896.0 588.1 L 896.2 585.3 L 896.3 582.3 L 896.4 579.2 L 896.4 575.9 L 896.3 572.5 L 896.1 568.9 L 895.9 565.1 L 895.5 561.7 L 895.0 558.6 L 894.3 555.8 L 893.5 553.4 L 892.5 551.3 L 891.4 549.5 L 890.2 548.1 L 888.8 546.9 L 887.2 545.9 L 885.5 544.8 L 883.5 543.8 L 881.3 542.9 L 878.9 542.0 L 876.3 541.2 L 873.5 540.4 L 870.5 539.6 L 867.3 539.0 L 863.9 538.4 L 860.3 537.8 L 856.5 537.4 L 852.5 537.0 L 848.2 536.8 L 843.8 536.6 L 839.2 536.4 L 834.8 536.4 L 830.7 536.3 L 826.8 536.3 L 823.2 536.4 L 819.8 536.5 L 816.7 536.7 L 813.8 536.9 L 811.2 537.1 L 808.9 537.3 L 806.9 537.5 L 805.3 537.7 L 804.0 537.8 L 803.0 537.9 L 802.3 538.0 L 802.0 538.0 Z" fill="#000000" stroke="#000000" stroke-width="26" stroke-linejoin="round" stroke-linecap="round" />
    </mask>
  </defs>

  <!-- Draw the 4 columns with transparent cutout gaps -->
  <g mask="url(#bar-mask)">
    <!-- Column 1 -->
    <path d="M 251 645 L 251 365 A 16 16 0 0 1 267 349 L 339 349 A 16 16 0 0 1 355 365 L 355 645 Z" fill="url(#bg-gradient)" />
    <!-- Column 2 -->
    <path d="M 385 659 L 385 272 A 16 16 0 0 1 401 256 L 473 256 A 16 16 0 0 1 489 272 L 489 659 Z" fill="url(#bg-gradient)" />
    <!-- Column 3 -->
    <path d="M 520 658 L 520 158 A 16 16 0 0 1 536 142 L 608 142 A 16 16 0 0 1 624 158 L 624 658 Z" fill="url(#bg-gradient)" />
    <!-- Column 4 -->
    <path d="M 653 639 L 653 276 A 16 16 0 0 1 669 260 L 741 260 A 16 16 0 0 1 757 276 L 757 639 Z" fill="url(#bg-gradient)" />
  </g>

  <!-- Draw the sweeping arrow with transparent cutout gaps -->
  <path d="M 868.0 127.0 L 864.9 128.5 L 858.7 131.5 L 849.4 136.1 L 837.1 142.2 L 821.6 149.7 L 803.0 158.8 L 781.4 169.4 L 756.6 181.6 L 735.9 192.7 L 719.1 202.8 L 706.3 211.9 L 697.5 220.1 L 692.6 227.2 L 691.8 233.3 L 694.9 238.4 L 702.1 242.6 L 708.1 246.6 L 712.9 250.6 L 716.7 254.6 L 719.3 258.4 L 720.8 262.2 L 721.2 266.0 L 720.4 269.7 L 718.6 273.3 L 716.1 277.5 L 713.1 282.2 L 709.6 287.4 L 705.4 293.1 L 700.8 299.4 L 695.5 306.2 L 689.7 313.6 L 683.3 321.4 L 676.9 329.1 L 670.5 336.5 L 664.1 343.7 L 657.7 350.6 L 651.2 357.3 L 644.7 363.8 L 638.2 370.0 L 631.8 376.0 L 624.4 382.2 L 616.2 388.7 L 607.1 395.3 L 597.2 402.2 L 586.4 409.3 L 574.7 416.6 L 562.2 424.1 L 548.8 431.9 L 535.9 439.0 L 523.5 445.5 L 511.6 451.3 L 500.2 456.5 L 489.2 461.0 L 478.7 464.9 L 468.8 468.2 L 459.2 470.8 L 449.4 473.1 L 439.1 475.1 L 428.5 476.8 L 417.5 478.2 L 406.1 479.2 L 394.4 480.0 L 382.2 480.4 L 369.8 480.6 L 357.4 480.3 L 345.2 479.6 L 333.1 478.6 L 321.2 477.2 L 309.4 475.3 L 297.7 473.1 L 286.2 470.5 L 274.8 467.5 L 263.4 464.1 L 252.1 460.3 L 240.7 456.2 L 229.3 451.6 L 217.9 446.6 L 206.6 441.3 L 195.2 435.6 L 183.8 429.4 L 174.6 424.8 L 167.6 421.6 L 162.8 419.9 L 160.2 419.6 L 159.8 420.8 L 161.5 423.5 L 165.4 427.7 L 171.6 433.3 L 177.9 438.9 L 184.6 444.5 L 191.4 450.0 L 198.6 455.5 L 205.9 461.0 L 213.6 466.4 L 221.4 471.8 L 229.6 477.2 L 238.2 482.4 L 247.3 487.5 L 256.8 492.5 L 266.9 497.3 L 277.5 502.0 L 288.5 506.5 L 300.0 510.9 L 312.0 515.1 L 324.2 519.0 L 336.6 522.4 L 349.2 525.3 L 362.0 527.9 L 375.0 530.0 L 388.3 531.8 L 401.7 533.1 L 415.3 533.9 L 429.1 534.2 L 443.2 534.0 L 457.4 533.1 L 471.8 531.7 L 486.5 529.6 L 501.3 527.0 L 516.4 523.9 L 531.6 520.1 L 546.1 516.2 L 559.8 512.2 L 572.8 508.1 L 585.0 503.9 L 596.4 499.5 L 607.0 495.0 L 616.9 490.4 L 626.1 485.6 L 634.9 480.8 L 643.5 476.0 L 651.8 471.1 L 659.8 466.2 L 667.5 461.2 L 674.9 456.1 L 682.1 451.1 L 688.9 445.9 L 696.5 439.7 L 704.6 432.4 L 713.4 423.9 L 722.8 414.3 L 732.9 403.7 L 743.6 391.9 L 755.0 379.0 L 767.0 365.0 L 778.4 353.3 L 789.3 343.9 L 799.5 336.9 L 809.2 332.1 L 818.3 329.7 L 826.9 329.6 L 834.8 331.8 L 842.2 336.2 L 848.6 340.2 L 854.2 343.6 L 858.8 346.4 L 862.5 348.6 L 865.2 350.3 L 867.1 351.4 L 868.0 352.0 Z" fill="url(#bg-gradient)" mask="url(#swoosh-mask)" />

  <!-- Draw the Amazon smile shapes -->
  <path d="M 111.0 565.0 L 111.0 565.1 L 111.1 565.4 L 111.3 565.8 L 111.5 566.4 L 111.7 567.1 L 112.0 568.0 L 112.3 568.9 L 112.7 570.1 L 113.6 571.6 L 115.1 573.6 L 117.2 576.0 L 119.8 578.8 L 123.0 582.0 L 126.8 585.7 L 131.1 589.8 L 135.9 594.2 L 141.7 599.2 L 148.2 604.6 L 155.6 610.4 L 163.9 616.6 L 173.0 623.3 L 182.9 630.4 L 193.7 638.0 L 205.3 646.0 L 217.0 653.7 L 228.7 661.0 L 240.5 667.9 L 252.3 674.6 L 264.1 680.8 L 276.0 686.8 L 288.0 692.4 L 300.0 697.6 L 312.2 702.6 L 324.7 707.2 L 337.3 711.6 L 350.2 715.7 L 363.3 719.4 L 376.6 722.9 L 390.1 726.1 L 403.9 728.9 L 416.9 731.5 L 429.2 733.7 L 440.8 735.6 L 451.7 737.2 L 461.8 738.4 L 471.3 739.3 L 480.0 739.9 L 488.0 740.1 L 495.8 740.3 L 503.4 740.3 L 510.9 740.2 L 518.1 740.0 L 525.2 739.7 L 532.1 739.3 L 538.8 738.8 L 545.2 738.2 L 552.2 737.3 L 559.8 736.2 L 567.8 734.9 L 576.2 733.3 L 585.2 731.5 L 594.8 729.5 L 604.8 727.2 L 615.2 724.8 L 625.9 721.9 L 636.8 718.7 L 647.8 715.2 L 659.0 711.3 L 670.3 707.1 L 681.9 702.5 L 693.6 697.6 L 705.4 692.4 L 716.7 687.2 L 727.4 682.1 L 737.4 677.1 L 746.8 672.2 L 755.7 667.3 L 763.9 662.5 L 771.5 657.8 L 778.5 653.2 L 784.9 648.9 L 790.7 644.8 L 795.8 641.1 L 800.4 637.7 L 804.4 634.5 L 807.7 631.7 L 810.4 629.1 L 812.6 626.9 L 814.4 624.7 L 815.8 622.6 L 817.0 620.6 L 817.8 618.7 L 818.3 616.8 L 818.4 615.0 L 818.2 613.3 L 817.8 611.7 L 817.1 610.2 L 816.3 608.9 L 815.4 607.8 L 814.3 606.8 L 813.1 605.9 L 811.8 605.2 L 810.3 604.7 L 808.7 604.3 L 806.0 604.5 L 802.2 605.3 L 797.2 606.8 L 791.2 608.8 L 784.2 611.3 L 776.0 614.5 L 766.7 618.3 L 756.3 622.7 L 745.6 627.0 L 734.6 631.1 L 723.3 635.2 L 711.7 639.1 L 699.8 642.9 L 687.5 646.6 L 674.9 650.2 L 662.1 653.8 L 649.3 657.0 L 636.8 659.9 L 624.4 662.6 L 612.1 664.9 L 600.0 667.0 L 588.1 668.8 L 576.3 670.4 L 564.7 671.6 L 553.3 672.7 L 542.1 673.6 L 531.2 674.2 L 520.5 674.8 L 510.1 675.1 L 499.9 675.2 L 489.9 675.1 L 480.1 674.9 L 470.6 674.5 L 461.4 674.0 L 452.4 673.5 L 443.6 672.8 L 435.1 672.0 L 426.9 671.1 L 418.9 670.1 L 411.1 668.9 L 403.2 667.7 L 395.2 666.3 L 387.0 664.7 L 378.7 663.0 L 370.3 661.2 L 361.7 659.2 L 352.9 657.1 L 344.1 654.9 L 334.6 652.2 L 324.6 649.2 L 314.0 645.9 L 302.8 642.1 L 291.0 638.0 L 278.7 633.5 L 265.8 628.6 L 252.2 623.4 L 239.2 618.1 L 226.6 612.7 L 214.4 607.3 L 202.6 601.9 L 191.3 596.4 L 180.4 590.9 L 170.0 585.3 L 160.0 579.7 L 151.1 574.8 L 143.3 570.5 L 136.6 567.0 L 130.9 564.2 L 126.4 562.1 L 123.0 560.7 L 120.6 560.0 L 119.4 560.0 L 118.3 560.0 L 117.3 560.0 L 116.6 560.0 L 115.9 560.0 L 115.5 560.0 L 115.2 560.0 L 115.0 560.0 Z" fill="#f59e0b" />
  <path d="M 785.0 542.0 L 784.4 542.3 L 783.3 542.8 L 781.5 543.6 L 779.2 544.7 L 776.3 546.0 L 772.9 547.6 L 768.8 549.4 L 764.2 551.6 L 760.0 553.6 L 756.2 555.5 L 752.8 557.3 L 749.8 559.0 L 747.2 560.5 L 745.0 562.0 L 743.2 563.4 L 741.8 564.6 L 740.6 565.8 L 739.5 567.0 L 738.6 568.1 L 737.9 569.2 L 737.3 570.2 L 736.8 571.1 L 736.6 572.1 L 736.4 572.9 L 736.4 573.8 L 736.4 574.5 L 736.5 575.3 L 736.7 576.0 L 737.0 576.6 L 737.3 577.2 L 737.8 577.8 L 738.2 578.2 L 738.8 578.7 L 739.3 579.1 L 739.9 579.4 L 740.6 579.6 L 741.2 579.8 L 741.9 579.9 L 742.6 580.0 L 743.4 580.0 L 744.2 579.9 L 745.2 579.8 L 746.3 579.6 L 747.5 579.4 L 748.8 579.1 L 750.2 578.7 L 751.7 578.2 L 753.3 577.8 L 755.2 577.2 L 757.2 576.8 L 759.5 576.2 L 762.0 575.8 L 764.7 575.2 L 767.7 574.8 L 770.8 574.2 L 774.2 573.8 L 777.6 573.3 L 780.9 572.9 L 784.3 572.5 L 787.7 572.2 L 791.1 572.0 L 794.4 571.7 L 797.8 571.6 L 801.2 571.4 L 804.6 571.4 L 807.9 571.3 L 811.3 571.3 L 814.7 571.4 L 818.1 571.5 L 821.4 571.7 L 824.8 571.9 L 828.2 572.1 L 831.3 572.4 L 834.0 572.7 L 836.5 573.0 L 838.7 573.3 L 840.6 573.6 L 842.2 574.0 L 843.5 574.3 L 844.5 574.7 L 845.5 575.1 L 846.4 575.5 L 847.2 576.0 L 848.0 576.5 L 848.8 577.0 L 849.5 577.6 L 850.2 578.2 L 850.8 578.8 L 851.4 579.5 L 852.0 580.2 L 852.5 581.0 L 853.0 581.8 L 853.5 582.6 L 853.9 583.5 L 854.3 584.5 L 854.7 585.5 L 855.0 586.8 L 855.2 588.4 L 855.3 590.4 L 855.4 592.6 L 855.4 595.2 L 855.3 598.1 L 855.1 601.2 L 854.9 604.8 L 854.5 608.5 L 853.9 612.4 L 853.2 616.6 L 852.3 620.9 L 851.3 625.5 L 850.1 630.3 L 848.8 635.4 L 847.2 640.6 L 845.7 645.8 L 844.1 650.9 L 842.5 656.0 L 840.8 661.0 L 839.0 665.9 L 837.3 670.8 L 835.4 675.6 L 833.6 680.4 L 831.9 684.7 L 830.6 688.5 L 829.4 691.9 L 828.6 694.8 L 827.9 697.3 L 827.6 699.4 L 827.4 700.9 L 827.6 702.1 L 827.8 703.1 L 828.0 704.0 L 828.4 704.8 L 828.8 705.5 L 829.4 706.0 L 830.0 706.5 L 830.6 706.9 L 831.4 707.1 L 832.1 707.3 L 832.9 707.3 L 833.7 707.3 L 834.5 707.2 L 835.4 707.0 L 836.2 706.7 L 837.1 706.2 L 837.9 705.8 L 838.8 705.2 L 839.8 704.5 L 840.8 703.8 L 841.8 703.0 L 842.8 702.1 L 843.8 701.1 L 844.9 700.1 L 846.1 698.9 L 847.3 697.6 L 848.7 696.0 L 850.2 694.2 L 851.8 692.1 L 853.6 689.8 L 855.4 687.3 L 857.4 684.5 L 859.6 681.5 L 861.7 678.2 L 864.0 674.6 L 866.2 670.6 L 868.5 666.4 L 870.9 661.8 L 873.3 656.9 L 875.8 651.8 L 878.2 646.2 L 880.5 641.0 L 882.6 636.1 L 884.5 631.5 L 886.2 627.2 L 887.7 623.2 L 889.0 619.5 L 890.1 616.1 L 890.9 612.9 L 891.8 609.9 L 892.5 606.9 L 893.2 604.0 L 893.8 601.2 L 894.4 598.5 L 894.9 595.8 L 895.3 593.2 L 895.7 590.8 L 896.0 588.1 L 896.2 585.3 L 896.3 582.3 L 896.4 579.2 L 896.4 575.9 L 896.3 572.5 L 896.1 568.9 L 895.9 565.1 L 895.5 561.7 L 895.0 558.6 L 894.3 555.8 L 893.5 553.4 L 892.5 551.3 L 891.4 549.5 L 890.2 548.1 L 888.8 546.9 L 887.2 545.9 L 885.5 544.8 L 883.5 543.8 L 881.3 542.9 L 878.9 542.0 L 876.3 541.2 L 873.5 540.4 L 870.5 539.6 L 867.3 539.0 L 863.9 538.4 L 860.3 537.8 L 856.5 537.4 L 852.5 537.0 L 848.2 536.8 L 843.8 536.6 L 839.2 536.4 L 834.8 536.4 L 830.7 536.3 L 826.8 536.3 L 823.2 536.4 L 819.8 536.5 L 816.7 536.7 L 813.8 536.9 L 811.2 537.1 L 808.9 537.3 L 806.9 537.5 L 805.3 537.7 L 804.0 537.8 L 803.0 537.9 L 802.3 538.0 L 802.0 538.0 Z" fill="#f59e0b" />
</svg>